<?xml version="1.0" encoding="UTF-8" standalone="no"?>
<!-- Created with Inkscape (http://www.inkscape.org/) -->

<svg
   xmlns:dc="http://purl.org/dc/elements/1.1/"
   xmlns:cc="http://creativecommons.org/ns#"
   xmlns:rdf="http://www.w3.org/1999/02/22-rdf-syntax-ns#"
   xmlns:svg="http://www.w3.org/2000/svg"
   xmlns="http://www.w3.org/2000/svg"
   xmlns:sodipodi="http://sodipodi.sourceforge.net/DTD/sodipodi-0.dtd"
   xmlns:inkscape="http://www.inkscape.org/namespaces/inkscape"
   width="300"
   height="25"
   viewBox="0 0 79.374998 6.6145835"
   version="1.1"
   id="svg8"
   inkscape:version="0.92.5 (2060ec1f9f, 2020-04-08)"
   sodipodi:docname="logo.svg">
  <defs
     id="defs2" />
  <sodipodi:namedview
     id="base"
     pagecolor="#ffffff"
     bordercolor="#666666"
     borderopacity="1.0"
     inkscape:pageopacity="0.0"
     inkscape:pageshadow="2"
     inkscape:zoom="11.2"
     inkscape:cx="173.21427"
     inkscape:cy="47.385693"
     inkscape:document-units="mm"
     inkscape:current-layer="layer1"
     showgrid="false"
     units="px"
     inkscape:window-width="3440"
     inkscape:window-height="1413"
     inkscape:window-x="0"
     inkscape:window-y="-10"
     inkscape:window-maximized="1" />
  <metadata
     id="metadata5">
    <rdf:RDF>
      <cc:Work
         rdf:about="">
        <dc:format>image/svg+xml</dc:format>
        <dc:type
           rdf:resource="http://purl.org/dc/dcmitype/StillImage" />
        <dc:title></dc:title>
      </cc:Work>
    </rdf:RDF>
  </metadata>
  <g
     inkscape:label="Layer 1"
     inkscape:groupmode="layer"
     id="layer1"
     transform="translate(0,-290.3854)">
    <rect
       style="fill:#ffffff;stroke-width:0.26458332"
       id="rect988"
       width="4.7010789"
       height="4.7955728"
       x="30.119978"
       y="291.51932" />
    <g
       aria-label="text2cypher"
       style="font-style:normal;font-weight:normal;font-size:10.58333302px;line-height:1.25;font-family:sans-serif;letter-spacing:0px;word-spacing:0px;fill:#000000;fill-opacity:1;stroke:none;stroke-width:0.26458332"
       id="text817">
      <path
         d="m 0,291.90674 v -1.45521 h 6.5484374 v 1.45521 z m 6.5484374,0.7276 v 4.36563 H 3.6380208 v -4.36563 z m -3.6380208,4.36563 H 0 v -4.36563 h 2.9104166 z"
         style="font-style:normal;font-variant:normal;font-weight:normal;font-stretch:normal;font-size:11.64166641px;font-family:'Unknown Galaxy';-inkscape-font-specification:'Unknown Galaxy';fill:#ffffff;stroke-width:0.26458332"
         id="path929" />
      <path
         d="m 12.369271,294.08955 v -0.7276 H 8.7312498 v 0.7276 z m 1.455208,1.45521 v 1.45521 H 7.2760415 v -4.36563 h 5.0932295 v -0.7276 H 7.2760415 v -1.45521 h 6.5484375 v 4.36563 H 8.7312498 v 0.7276 z"
         style="font-style:normal;font-variant:normal;font-weight:normal;font-stretch:normal;font-size:11.64166641px;font-family:'Unknown Galaxy';-inkscape-font-specification:'Unknown Galaxy';fill:#ffffff;stroke-width:0.26458332"
         id="path931" />
      <path
         d="m 17.814933,294.31693 0.920874,1.22783 h 0.909505 l -1.318782,-1.7508 2.77399,-2.81946 v 6.02547 h -5.923152 z m 0.07958,-1.11414 -0.977718,-1.29605 h -0.909506 l 1.364258,1.81901 -2.819466,2.87631 v -6.15053 h 6.04821 z"
         style="font-style:normal;font-variant:normal;font-weight:normal;font-stretch:normal;font-size:11.64166641px;font-family:'Unknown Galaxy';-inkscape-font-specification:'Unknown Galaxy';fill:#ffffff;stroke-width:0.26458332"
         id="path933" />
      <path
         d="m 21.828125,291.90674 v -1.45521 h 6.548437 v 1.45521 z m 6.548437,0.7276 v 4.36563 h -2.910416 v -4.36563 z m -3.63802,4.36563 h -2.910417 v -4.36563 h 2.910417 z"
         style="font-style:normal;font-variant:normal;font-weight:normal;font-stretch:normal;font-size:11.64166641px;font-family:'Unknown Galaxy';-inkscape-font-specification:'Unknown Galaxy';fill:#ffffff;stroke-width:0.26458332"
         id="path935" />
      <path
         d="m 30.559374,292.63434 h 2.910417 v 0.72761 h -2.910417 v 2.18281 h 3.638021 v -0.7276 h -2.910417 v -0.72761 h 2.910417 v -2.18281 h -3.638021 z m 5.093229,-2.18281 v 6.54844 h -6.548437 v -6.54844 z"
         style="fill:#008000"
         id="path937" />
      <path
         d="m 42.928644,292.63434 v 4.36563 h -6.548437 v -6.54844 h 6.548437 v 1.45521 h -5.093229 v 3.63802 h 3.638021 v -0.7276 H 38.56302 v -2.18282 z"
         style="font-style:normal;font-variant:normal;font-weight:normal;font-stretch:normal;font-size:11.64166641px;font-family:'Unknown Galaxy';-inkscape-font-specification:'Unknown Galaxy';fill:#ffffff;stroke-width:0.26458332"
         id="path939" />
      <path
         d="m 44.281535,296.99997 5.923152,-6.02547 v 6.02547 z m 2.717147,-3.79718 -0.977719,-1.29605 h -0.909505 l 1.364258,1.81901 -2.819466,2.87631 v -6.15053 h 6.04821 z"
         style="font-style:normal;font-variant:normal;font-weight:normal;font-stretch:normal;font-size:11.64166641px;font-family:'Unknown Galaxy';-inkscape-font-specification:'Unknown Galaxy';fill:#ffffff;stroke-width:0.26458332"
         id="path941" />
      <path
         d="m 53.115102,293.36195 v -0.72761 h 2.182812 v 0.72761 z m -0.727605,3.63802 h -1.455208 v -6.54844 h 6.548437 v 6.54844 h -4.365624 v -2.91042 h 2.910416 v -2.18281 h -3.638021 z"
         style="font-style:normal;font-variant:normal;font-weight:normal;font-stretch:normal;font-size:11.64166641px;font-family:'Unknown Galaxy';-inkscape-font-specification:'Unknown Galaxy';fill:#ffffff;stroke-width:0.26458332"
         id="path943" />
      <path
         d="m 60.391145,294.08955 h 2.182812 v 1.45521 h 0.727604 v -5.09323 h 1.455208 v 6.54844 h -4.365624 z m -0.727605,2.91042 h -1.455208 v -6.54844 h 4.365625 v 2.91042 h -2.182812 v -1.45521 H 59.66354 Z"
         style="font-style:normal;font-variant:normal;font-weight:normal;font-stretch:normal;font-size:11.64166641px;font-family:'Unknown Galaxy';-inkscape-font-specification:'Unknown Galaxy';fill:#ffffff;stroke-width:0.26458332"
         id="path945" />
      <path
         d="m 70.577604,294.08955 v -0.7276 h -3.638021 v 0.7276 z m 1.455208,1.45521 v 1.45521 h -6.548437 v -4.36563 h 5.093229 v -0.7276 h -5.093229 v -1.45521 h 6.548437 v 4.36563 h -5.093229 v 0.7276 z"
         style="font-style:normal;font-variant:normal;font-weight:normal;font-stretch:normal;font-size:11.64166641px;font-family:'Unknown Galaxy';-inkscape-font-specification:'Unknown Galaxy';fill:#ffffff;stroke-width:0.26458332"
         id="path947" />
      <path
         d="m 78.217445,296.99997 h -3.274218 v -2.91042 h 0.727604 z m -1.091406,-4.36563 v 0.72761 h -2.182812 v -0.72761 z m 2.035018,4.36563 -2.59209,-2.91042 h 1.284676 v -2.18281 h -3.638021 v 5.09323 h -1.455208 v -6.54844 h 6.548437 v 6.54844 z"
         style="font-style:normal;font-variant:normal;font-weight:normal;font-stretch:normal;font-size:11.64166641px;font-family:'Unknown Galaxy';-inkscape-font-specification:'Unknown Galaxy';fill:#ffffff;stroke-width:0.26458332"
         id="path949" />
    </g>
  </g>
</svg>
