<svg xmlns="http://www.w3.org/2000/svg" width="300" height="25" viewBox="0 0 79.375 6.615"><path style="fill:#fff;stroke-width:.26458332" d="M30.12 291.519h4.701v4.796H30.12z" transform="translate(0 -290.385)"/><g aria-label="text2cypher" style="font-style:normal;font-weight:400;font-size:10.58333302px;line-height:1.25;font-family:sans-serif;letter-spacing:0;word-spacing:0;fill:#000;fill-opacity:1;stroke:none;stroke-width:.26458332"><path d="M0 291.907v-1.455h6.548v1.455zm6.548.727V297h-2.91v-4.366zM2.91 297H0v-4.366h2.91zM12.37 294.09v-.728H8.73v.728zm1.454 1.455V297H7.276v-4.366h5.093v-.727H7.276v-1.455h6.548v4.365H8.731v.728zM17.815 294.317l.92 1.228h.91l-1.318-1.751 2.774-2.82V297h-5.924zm.08-1.114-.978-1.296h-.91l1.365 1.819-2.82 2.876v-6.15H20.6zM21.828 291.907v-1.455h6.549v1.455zm6.549.727V297h-2.91v-4.366zM24.739 297h-2.91v-4.366h2.91z" style="font-style:normal;font-variant:normal;font-weight:400;font-stretch:normal;font-size:11.64166641px;font-family:'Unknown Galaxy';-inkscape-font-specification:'Unknown Galaxy';fill:#fff;stroke-width:.26458332" transform="translate(0 -290.385)"/><path d="M30.56 292.634h2.91v.728h-2.91v2.183h3.637v-.728h-2.91v-.727h2.91v-2.183H30.56zm5.093-2.182V297h-6.549v-6.548z" style="fill:green" transform="translate(0 -290.385)"/><path d="M42.929 292.634V297H36.38v-6.548h6.549v1.455h-5.094v3.638h3.638v-.728h-2.91v-2.183zM44.282 297l5.923-6.025V297zm2.717-3.797-.978-1.296h-.91l1.365 1.819-2.82 2.876v-6.15h6.048zM53.115 293.362v-.728h2.183v.728zM52.387 297h-1.455v-6.548h6.549V297h-4.366v-2.91h2.91v-2.183h-3.638zM60.391 294.09h2.183v1.455h.728v-5.093h1.455V297H60.39zm-.727 2.91h-1.456v-6.548h4.366v2.91h-2.183v-1.455h-.727ZM70.578 294.09v-.728H66.94v.728zm1.455 1.455V297h-6.549v-4.366h5.094v-.727h-5.094v-1.455h6.549v4.365H66.94v.728zM78.217 297h-3.274v-2.91h.728zm-1.091-4.366v.728h-2.183v-.728zM79.161 297l-2.592-2.91h1.285v-2.183h-3.638V297H72.76v-6.548h6.549V297z" style="font-style:normal;font-variant:normal;font-weight:400;font-stretch:normal;font-size:11.64166641px;font-family:'Unknown Galaxy';-inkscape-font-specification:'Unknown Galaxy';fill:#fff;stroke-width:.26458332" transform="translate(0 -290.385)"/></g></svg>